<?xml version="1.0" encoding="utf-8"?>
<!-- Generator: Adobe Illustrator 15.1.0, SVG Export Plug-In . SVG Version: 6.00 Build 0)  -->
<!DOCTYPE svg PUBLIC "-//W3C//DTD SVG 1.1//EN" "http://www.w3.org/Graphics/SVG/1.1/DTD/svg11.dtd">
<svg version="1.1" id="Layer_1" xmlns="http://www.w3.org/2000/svg" xmlns:xlink="http://www.w3.org/1999/xlink" x="0px" y="0px"
	 width="150px" height="150px" viewBox="0 0 150 150" enable-background="new 0 0 150 150" xml:space="preserve">
<g>
	<polygon id="Check_5_" fill="#3B3B3B" points="57.707,69.103 74.231,86.088 101.354,58.891 73.461,77.664 	"/>
	<path fill="#3B3B3B" d="M31.862,75.981c0,24.682,20.086,44.775,44.775,44.775c14.166,0,27.106-7.453,35.817-20.157l-6.77-4.56
		c-7.209,10.188-17.869,16.635-29.048,16.635c-20.235,0-36.705-16.462-36.705-36.693v0.031c0-20.235,16.47-36.713,36.705-36.713
		c11.179,0,21.839,6.455,29.048,16.651l6.77-4.567c-8.711-12.688-21.651-20.149-35.817-20.149
		c-24.689,0-44.775,20.086-44.775,44.778"/>
	<path fill="#3B3B3B" d="M75.827,9.403c-36.517,0-66.229,29.708-66.229,66.225c0,36.513,29.712,66.229,66.229,66.229
		s66.232-29.716,66.232-66.229C142.06,39.111,112.344,9.403,75.827,9.403z M75.827,135.096c-32.79,0-59.468-26.682-59.468-59.468
		c0-32.79,26.678-59.464,59.468-59.464s59.464,26.674,59.464,59.464C135.291,108.414,108.617,135.096,75.827,135.096z"/>
</g>
</svg>
